HIERARCHY
ROOT root
{
	OFFSET 0.000000 0.000000 0.000000
	CHANNELS 6 Xposition Yposition Zposition Zrotation Yrotation Xrotation
	JOINT lhip
	{
		OFFSET 0.058581 -0.082280 -0.017664
		CHANNELS 3 Zrotation Yrotation Xrotation
		JOINT lknee
		{
			OFFSET 0.043451 -0.386469 0.008037
			CHANNELS 3 Zrotation Yrotation Xrotation
			JOINT lankle
			{
				OFFSET -0.014790 -0.426874 -0.037428
				CHANNELS 3 Zrotation Yrotation Xrotation
				JOINT ltoe
				{
					OFFSET 0.041054 -0.060286 0.122042
					CHANNELS 3 Zrotation Yrotation Xrotation
					End Site
					{
						OFFSET 0.000000 0.000000 0.000000
					}
				}
			}
		}
	}
	JOINT rhip
	{
		OFFSET -0.060310 -0.090513 -0.013543
		CHANNELS 3 Zrotation Yrotation Xrotation
		JOINT rknee
		{
			OFFSET -0.043257 -0.383688 -0.004843
			CHANNELS 3 Zrotation Yrotation Xrotation
			JOINT rankle
			{
				OFFSET 0.019056 -0.420046 -0.034562
				CHANNELS 3 Zrotation Yrotation Xrotation
				JOINT rtoe
				{
					OFFSET -0.034840 -0.062106 0.130323
					CHANNELS 3 Zrotation Yrotation Xrotation
					End Site
					{
						OFFSET 0.000000 0.000000 0.000000
					}
				}
			}
		}
	}
	JOINT lowerback
	{
		OFFSET 0.004439 0.124404 -0.038385
		CHANNELS 3 Zrotation Yrotation Xrotation
		JOINT upperback
		{
			OFFSET 0.004488 0.137956 0.026820
			CHANNELS 3 Zrotation Yrotation Xrotation
			JOINT chest
			{
				OFFSET -0.002265 0.056032 0.002855
				CHANNELS 3 Zrotation Yrotation Xrotation
				JOINT lowerneck
				{
					OFFSET -0.013390 0.211636 -0.033468
					CHANNELS 3 Zrotation Yrotation Xrotation
					JOINT upperneck
					{
						OFFSET 0.010113 0.088937 0.050410
						CHANNELS 3 Zrotation Yrotation Xrotation
						End Site
						{
							OFFSET 0.000000 0.000000 0.000000
						}
					}
				}
				JOINT lclavicle
				{
					OFFSET 0.071702 0.114000 -0.018898
					CHANNELS 3 Zrotation Yrotation Xrotation
					JOINT lshoulder
					{
						OFFSET 0.122921 0.045205 -0.019046
						CHANNELS 3 Zrotation Yrotation Xrotation
						JOINT lelbow
						{
							OFFSET 0.255332 -0.015649 -0.022946
							CHANNELS 3 Zrotation Yrotation Xrotation
							JOINT lwrist
							{
								OFFSET 0.265709 0.012698 -0.007375
								CHANNELS 3 Zrotation Yrotation Xrotation
								End Site
								{
									OFFSET 0.000000 0.000000 0.000000
								}
							}
						}
					}
				}
				JOINT rclavicle
				{
					OFFSET -0.082954 0.112472 -0.023707
					CHANNELS 3 Zrotation Yrotation Xrotation
					JOINT rshoulder
					{
						OFFSET -0.113228 0.046853 -0.008472
						CHANNELS 3 Zrotation Yrotation Xrotation
						JOINT relbow
						{
							OFFSET -0.260127 -0.014369 -0.031269
							CHANNELS 3 Zrotation Yrotation Xrotation
							JOINT rwrist
							{
								OFFSET -0.269108 0.006794 -0.006027
								CHANNELS 3 Zrotation Yrotation Xrotation
								End Site
								{
									OFFSET 0.000000 0.000000 0.000000
								}
							}
						}
					}
				}
			}
		}
	}
}
MOTION
Frames: 8
Frame Time: 0.033333
0.360334 0.340718 0.982863 85.848794 1.868527 85.655349 5.701937 1.628202 1.971236 0.128057 -3.648646 5.903577 1.382918 8.644367 -11.826490 0.000000 -0.000000 0.000000 -4.472428 -2.674807 4.205473 1.347470 -2.548404 -1.050890 1.614305 -5.587229 -6.622008 0.000000 -0.000000 0.000000 -0.270901 1.369089 2.349492 3.009385 -5.011476 6.732675 1.050988 -2.489454 -4.933660 -6.106829 -17.273717 14.777597 9.349962 -19.996592 -17.097224 -21.524857 -3.579786 3.630340 -60.278575 -6.742585 12.179287 14.338525 -14.640361 -9.578613 -16.126772 -15.450775 2.396386 19.085392 11.340674 0.068520 55.957775 3.054216 9.648442 -13.274237 11.419565 -8.454468 14.814228 14.011421 -5.096639 
0.360852 0.340671 0.982492 85.806891 1.888317 85.722094 5.710892 1.585113 1.961201 0.140171 -3.644656 5.834132 1.227908 8.744853 -11.766157 0.000000 -0.000000 0.000000 -4.435914 -2.696286 4.168452 1.310224 -2.535370 -1.103930 1.825302 -5.593074 -6.573383 0.000000 -0.000000 0.000000 -0.080363 1.336728 2.503050 2.850564 -4.947240 6.051093 1.067883 -2.510364 -4.404724 -6.225378 -17.290789 14.825735 9.394781 -19.940808 -17.376463 -21.611652 -3.660271 3.737367 -60.217800 -6.775595 12.067193 14.288803 -14.692829 -9.299519 -15.715645 -15.557604 1.983102 19.061284 11.325009 0.027477 55.940435 3.022066 9.609403 -13.192726 11.409612 -8.207194 14.402118 14.059538 -5.347548 
0.361465 0.340562 0.982491 85.776388 1.876492 85.750207 5.703824 1.586933 2.009076 0.140706 -3.622033 5.778340 1.220904 8.759977 -11.770681 0.000000 -0.000000 0.000000 -4.434793 -2.692126 4.256228 1.300322 -2.552841 -1.264216 1.813861 -5.567823 -6.527953 0.000000 -0.000000 0.000000 -0.042574 1.322147 2.479644 2.817077 -4.953272 6.038277 1.034535 -2.506700 -4.468786 -6.279173 -17.212246 14.883840 9.349147 -19.965692 -17.102622 -21.595825 -3.642485 3.818682 -60.239116 -6.800779 12.039225 14.300652 -14.659161 -9.271296 -15.664661 -15.598947 1.936602 19.088017 11.300952 0.108196 55.946094 3.033791 9.588401 -13.154566 11.318525 -8.206123 14.340853 14.102264 -5.385163 
0.362304 0.340390 0.982416 85.721230 1.868548 85.809122 5.711771 1.552000 2.054109 0.121450 -3.572932 5.710041 1.237968 8.810166 -11.786663 0.000000 -0.000000 0.000000 -4.442221 -2.681357 4.338275 1.318911 -2.594094 -1.448261 1.838335 -5.514088 -6.516547 0.000000 -0.000000 0.000000 -0.003220 1.308418 2.398183 2.710406 -4.928293 6.018496 0.962431 -2.485921 -4.722718 -6.224562 -16.673625 15.084824 9.205369 -19.853863 -15.482664 -21.446447 -3.699365 4.295842 -60.340489 -6.972047 11.901570 14.369381 -14.616928 -9.059673 -15.380910 -15.778152 1.581300 19.210686 11.268939 0.589949 55.964147 3.203393 9.505384 -13.071229 11.160818 -8.209945 14.041302 14.262846 -5.807325 
0.362717 0.340555 0.982021 85.669333 1.863858 85.874828 5.733851 1.519643 2.037983 0.097776 -3.530811 5.677860 1.269757 8.847526 -11.781026 0.000000 -0.000000 0.000000 -4.462701 -2.683638 4.304438 1.343519 -2.625580 -1.498197 1.892026 -5.452439 -6.511830 0.000000 -0.000000 0.000000 0.006852 1.310725 2.351330 2.614167 -4.894639 5.991993 0.911392 -2.457274 -5.013483 -6.091536 -15.992884 15.339755 9.031598 -19.533352 -13.721287 -21.358305 -3.755348 4.763249 -60.403336 -7.157075 11.748542 14.445748 -14.570710 -8.845882 -15.149390 -15.897714 1.239512 19.344423 11.227433 1.110197 56.020285 3.374885 9.479136 -13.137575 11.194673 -8.072370 13.875267 14.319759 -6.092729 
0.363241 0.340772 0.981605 85.564792 1.864920 85.933253 5.783380 1.507460 2.078474 0.052014 -3.481198 5.612938 1.345820 8.914233 -11.803875 0.000000 -0.000000 0.000000 -4.478632 -2.690816 4.258641 1.369720 -2.634927 -1.504418 1.959649 -5.362517 -6.531078 0.000000 -0.000000 0.000000 -0.016510 1.335606 2.249501 2.516118 -4.839134 6.000048 0.876383 -2.429755 -5.327297 -5.708186 -14.752692 15.862936 8.646748 -18.363529 -11.531733 -21.360905 -3.766820 5.137832 -60.384503 -7.399473 11.613315 14.454644 -14.441777 -8.684679 -14.809788 -15.940587 0.808024 19.382781 11.111992 1.637179 56.190057 3.696496 9.563799 -13.215812 11.158189 -7.998767 13.753725 14.348184 -6.413588 
0.363955 0.340598 0.981491 85.415138 1.916194 85.924160 5.870262 1.541026 2.242740 0.036665 -3.468518 5.487686 1.400696 8.964802 -11.855500 0.000000 -0.000000 0.000000 -4.431484 -2.695618 4.244718 1.388792 -2.623246 -1.416221 1.985657 -5.243657 -6.616055 0.000000 -0.000000 0.000000 -0.023266 1.362702 2.119847 2.520264 -4.795347 6.088007 0.935490 -2.420973 -5.329000 -5.184487 -12.976758 16.333268 8.168562 -16.264538 -10.792202 -21.432878 -3.721996 4.917446 -60.281245 -7.473911 11.545442 14.229885 -14.532515 -8.966239 -14.448643 -15.836395 0.270365 19.258466 10.936416 1.623801 56.155825 4.119239 9.703659 -13.138862 11.075200 -8.278025 13.854823 14.356672 -6.501504 
0.364403 0.340286 0.981320 85.216747 1.979926 85.887806 5.976574 1.595218 2.430449 0.041321 -3.470314 5.368352 1.413183 8.984907 -11.915687 0.000000 -0.000000 0.000000 -4.360266 -2.676481 4.148220 1.399779 -2.628026 -1.167662 1.985933 -5.080919 -6.735898 0.000000 -0.000000 0.000000 0.003709 1.409491 2.060153 2.626116 -4.751525 6.292578 1.077342 -2.421402 -5.141283 -4.730304 -10.716153 16.409220 7.537493 -13.732268 -11.288525 -21.624816 -3.768684 4.327733 -59.952568 -7.356832 11.478521 13.744886 -15.219983 -9.570023 -14.078925 -15.631322 -0.390987 19.206372 10.800879 1.258940 55.710172 4.630079 9.791091 -13.098814 11.311531 -8.817929 14.232121 14.233795 -6.295834 
